<?xml version='1.0' encoding='UTF-8'?>
<svg width="41mm" height="41mm" version="1.1" viewBox="0 0 41 41" xmlns="http://www.w3.org/2000/svg"><path d="M2,2H3V3H2zM3,2H4V3H3zM4,2H5V3H4zM5,2H6V3H5zM6,2H7V3H6zM7,2H8V3H7zM8,2H9V3H8zM10,2H11V3H10zM12,2H13V3H12zM14,2H15V3H14zM16,2H17V3H16zM20,2H21V3H20zM21,2H22V3H21zM24,2H25V3H24zM25,2H26V3H25zM26,2H27V3H26zM27,2H28V3H27zM28,2H29V3H28zM29,2H30V3H29zM32,2H33V3H32zM33,2H34V3H33zM34,2H35V3H34zM35,2H36V3H35zM36,2H37V3H36zM37,2H38V3H37zM38,2H39V3H38zM2,3H3V4H2zM8,3H9V4H8zM12,3H13V4H12zM13,3H14V4H13zM18,3H19V4H18zM20,3H21V4H20zM22,3H23V4H22zM24,3H25V4H24zM30,3H31V4H30zM32,3H33V4H32zM38,3H39V4H38zM2,4H3V5H2zM4,4H5V5H4zM5,4H6V5H5zM6,4H7V5H6zM8,4H9V5H8zM11,4H12V5H11zM12,4H13V5H12zM14,4H15V5H14zM15,4H16V5H15zM19,4H20V5H19zM20,4H21V5H20zM21,4H22V5H21zM22,4H23V5H22zM23,4H24V5H23zM26,4H27V5H26zM28,4H29V5H28zM32,4H33V5H32zM34,4H35V5H34zM35,4H36V5H35zM36,4H37V5H36zM38,4H39V5H38zM2,5H3V6H2zM4,5H5V6H4zM5,5H6V6H5zM6,5H7V6H6zM8,5H9V6H8zM10,5H11V6H10zM11,5H12V6H11zM14,5H15V6H14zM17,5H18V6H17zM18,5H19V6H18zM20,5H21V6H20zM21,5H22V6H21zM25,5H26V6H25zM27,5H28V6H27zM28,5H29V6H28zM30,5H31V6H30zM32,5H33V6H32zM34,5H35V6H34zM35,5H36V6H35zM36,5H37V6H36zM38,5H39V6H38zM2,6H3V7H2zM4,6H5V7H4zM5,6H6V7H5zM6,6H7V7H6zM8,6H9V7H8zM10,6H11V7H10zM12,6H13V7H12zM16,6H17V7H16zM18,6H19V7H18zM25,6H26V7H25zM28,6H29V7H28zM29,6H30V7H29zM30,6H31V7H30zM32,6H33V7H32zM34,6H35V7H34zM35,6H36V7H35zM36,6H37V7H36zM38,6H39V7H38zM2,7H3V8H2zM8,7H9V8H8zM10,7H11V8H10zM14,7H15V8H14zM15,7H16V8H15zM16,7H17V8H16zM20,7H21V8H20zM21,7H22V8H21zM23,7H24V8H23zM24,7H25V8H24zM28,7H29V8H28zM30,7H31V8H30zM32,7H33V8H32zM38,7H39V8H38zM2,8H3V9H2zM3,8H4V9H3zM4,8H5V9H4zM5,8H6V9H5zM6,8H7V9H6zM7,8H8V9H7zM8,8H9V9H8zM10,8H11V9H10zM12,8H13V9H12zM14,8H15V9H14zM16,8H17V9H16zM18,8H19V9H18zM20,8H21V9H20zM22,8H23V9H22zM24,8H25V9H24zM26,8H27V9H26zM28,8H29V9H28zM30,8H31V9H30zM32,8H33V9H32zM33,8H34V9H33zM34,8H35V9H34zM35,8H36V9H35zM36,8H37V9H36zM37,8H38V9H37zM38,8H39V9H38zM10,9H11V10H10zM11,9H12V10H11zM12,9H13V10H12zM13,9H14V10H13zM15,9H16V10H15zM16,9H17V10H16zM18,9H19V10H18zM19,9H20V10H19zM20,9H21V10H20zM22,9H23V10H22zM23,9H24V10H23zM24,9H25V10H24zM28,9H29V10H28zM2,10H3V11H2zM6,10H7V11H6zM8,10H9V11H8zM9,10H10V11H9zM10,10H11V11H10zM17,10H18V11H17zM20,10H21V11H20zM23,10H24V11H23zM28,10H29V11H28zM29,10H30V11H29zM31,10H32V11H31zM32,10H33V11H32zM33,10H34V11H33zM34,10H35V11H34zM35,10H36V11H35zM38,10H39V11H38zM2,11H3V12H2zM4,11H5V12H4zM5,11H6V12H5zM9,11H10V12H9zM10,11H11V12H10zM15,11H16V12H15zM18,11H19V12H18zM21,11H22V12H21zM22,11H23V12H22zM25,11H26V12H25zM26,11H27V12H26zM28,11H29V12H28zM29,11H30V12H29zM30,11H31V12H30zM34,11H35V12H34zM35,11H36V12H35zM37,11H38V12H37zM3,12H4V13H3zM4,12H5V13H4zM5,12H6V13H5zM8,12H9V13H8zM9,12H10V13H9zM11,12H12V13H11zM15,12H16V13H15zM16,12H17V13H16zM18,12H19V13H18zM22,12H23V13H22zM23,12H24V13H23zM24,12H25V13H24zM25,12H26V13H25zM28,12H29V13H28zM29,12H30V13H29zM33,12H34V13H33zM35,12H36V13H35zM36,12H37V13H36zM2,13H3V14H2zM4,13H5V14H4zM6,13H7V14H6zM9,13H10V14H9zM10,13H11V14H10zM12,13H13V14H12zM13,13H14V14H13zM14,13H15V14H14zM16,13H17V14H16zM19,13H20V14H19zM23,13H24V14H23zM25,13H26V14H25zM32,13H33V14H32zM36,13H37V14H36zM37,13H38V14H37zM4,14H5V15H4zM5,14H6V15H5zM8,14H9V15H8zM9,14H10V15H9zM11,14H12V15H11zM12,14H13V15H12zM14,14H15V15H14zM15,14H16V15H15zM17,14H18V15H17zM19,14H20V15H19zM21,14H22V15H21zM22,14H23V15H22zM23,14H24V15H23zM24,14H25V15H24zM25,14H26V15H25zM31,14H32V15H31zM32,14H33V15H32zM35,14H36V15H35zM36,14H37V15H36zM37,14H38V15H37zM38,14H39V15H38zM7,15H8V16H7zM9,15H10V16H9zM10,15H11V16H10zM11,15H12V16H11zM15,15H16V16H15zM17,15H18V16H17zM18,15H19V16H18zM19,15H20V16H19zM20,15H21V16H20zM21,15H22V16H21zM23,15H24V16H23zM24,15H25V16H24zM25,15H26V16H25zM28,15H29V16H28zM29,15H30V16H29zM30,15H31V16H30zM31,15H32V16H31zM34,15H35V16H34zM35,15H36V16H35zM37,15H38V16H37zM3,16H4V17H3zM4,16H5V17H4zM8,16H9V17H8zM9,16H10V17H9zM10,16H11V17H10zM11,16H12V17H11zM12,16H13V17H12zM14,16H15V17H14zM17,16H18V17H17zM20,16H21V17H20zM22,16H23V17H22zM23,16H24V17H23zM25,16H26V17H25zM26,16H27V17H26zM29,16H30V17H29zM32,16H33V17H32zM33,16H34V17H33zM34,16H35V17H34zM35,16H36V17H35zM36,16H37V17H36zM2,17H3V18H2zM6,17H7V18H6zM7,17H8V18H7zM16,17H17V18H16zM17,17H18V18H17zM22,17H23V18H22zM23,17H24V18H23zM26,17H27V18H26zM31,17H32V18H31zM32,17H33V18H32zM33,17H34V18H33zM34,17H35V18H34zM36,17H37V18H36zM38,17H39V18H38zM2,18H3V19H2zM8,18H9V19H8zM9,18H10V19H9zM13,18H14V19H13zM14,18H15V19H14zM15,18H16V19H15zM18,18H19V19H18zM22,18H23V19H22zM23,18H24V19H23zM25,18H26V19H25zM28,18H29V19H28zM29,18H30V19H29zM32,18H33V19H32zM33,18H34V19H33zM35,18H36V19H35zM36,18H37V19H36zM38,18H39V19H38zM5,19H6V20H5zM15,19H16V20H15zM19,19H20V20H19zM20,19H21V20H20zM21,19H22V20H21zM24,19H25V20H24zM25,19H26V20H25zM26,19H27V20H26zM27,19H28V20H27zM29,19H30V20H29zM30,19H31V20H30zM34,19H35V20H34zM37,19H38V20H37zM3,20H4V21H3zM4,20H5V21H4zM8,20H9V21H8zM11,20H12V21H11zM12,20H13V21H12zM13,20H14V21H13zM16,20H17V21H16zM17,20H18V21H17zM19,20H20V21H19zM21,20H22V21H21zM24,20H25V21H24zM25,20H26V21H25zM26,20H27V21H26zM28,20H29V21H28zM29,20H30V21H29zM33,20H34V21H33zM34,20H35V21H34zM35,20H36V21H35zM2,21H3V22H2zM4,21H5V22H4zM5,21H6V22H5zM10,21H11V22H10zM11,21H12V22H11zM12,21H13V22H12zM14,21H15V22H14zM15,21H16V22H15zM16,21H17V22H16zM17,21H18V22H17zM18,21H19V22H18zM19,21H20V22H19zM20,21H21V22H20zM21,21H22V22H21zM22,21H23V22H22zM23,21H24V22H23zM24,21H25V22H24zM28,21H29V22H28zM29,21H30V22H29zM32,21H33V22H32zM36,21H37V22H36zM37,21H38V22H37zM2,22H3V23H2zM4,22H5V23H4zM5,22H6V23H5zM6,22H7V23H6zM8,22H9V23H8zM9,22H10V23H9zM13,22H14V23H13zM15,22H16V23H15zM19,22H20V23H19zM23,22H24V23H23zM24,22H25V23H24zM25,22H26V23H25zM26,22H27V23H26zM28,22H29V23H28zM31,22H32V23H31zM32,22H33V23H32zM33,22H34V23H33zM36,22H37V23H36zM5,23H6V24H5zM11,23H12V24H11zM12,23H13V24H12zM13,23H14V24H13zM14,23H15V24H14zM15,23H16V24H15zM16,23H17V24H16zM18,23H19V24H18zM20,23H21V24H20zM22,23H23V24H22zM23,23H24V24H23zM25,23H26V24H25zM26,23H27V24H26zM28,23H29V24H28zM29,23H30V24H29zM30,23H31V24H30zM31,23H32V24H31zM33,23H34V24H33zM34,23H35V24H34zM2,24H3V25H2zM5,24H6V25H5zM6,24H7V25H6zM8,24H9V25H8zM9,24H10V25H9zM10,24H11V25H10zM11,24H12V25H11zM14,24H15V25H14zM17,24H18V25H17zM19,24H20V25H19zM22,24H23V25H22zM23,24H24V25H23zM24,24H25V25H24zM25,24H26V25H25zM26,24H27V25H26zM29,24H30V25H29zM31,24H32V25H31zM32,24H33V25H32zM33,24H34V25H33zM34,24H35V25H34zM35,24H36V25H35zM36,24H37V25H36zM2,25H3V26H2zM4,25H5V26H4zM7,25H8V26H7zM10,25H11V26H10zM11,25H12V26H11zM13,25H14V26H13zM15,25H16V26H15zM16,25H17V26H16zM18,25H19V26H18zM19,25H20V26H19zM20,25H21V26H20zM23,25H24V26H23zM24,25H25V26H24zM25,25H26V26H25zM26,25H27V26H26zM32,25H33V26H32zM33,25H34V26H33zM34,25H35V26H34zM36,25H37V26H36zM3,26H4V27H3zM4,26H5V27H4zM6,26H7V27H6zM7,26H8V27H7zM8,26H9V27H8zM10,26H11V27H10zM13,26H14V27H13zM14,26H15V27H14zM15,26H16V27H15zM16,26H17V27H16zM17,26H18V27H17zM20,26H21V27H20zM21,26H22V27H21zM22,26H23V27H22zM23,26H24V27H23zM25,26H26V27H25zM26,26H27V27H26zM28,26H29V27H28zM31,26H32V27H31zM32,26H33V27H32zM34,26H35V27H34zM35,26H36V27H35zM36,26H37V27H36zM37,26H38V27H37zM38,26H39V27H38zM2,27H3V28H2zM3,27H4V28H3zM7,27H8V28H7zM11,27H12V28H11zM13,27H14V28H13zM14,27H15V28H14zM16,27H17V28H16zM18,27H19V28H18zM21,27H22V28H21zM22,27H23V28H22zM24,27H25V28H24zM25,27H26V28H25zM26,27H27V28H26zM29,27H30V28H29zM30,27H31V28H30zM32,27H33V28H32zM34,27H35V28H34zM36,27H37V28H36zM4,28H5V29H4zM6,28H7V29H6zM8,28H9V29H8zM10,28H11V29H10zM11,28H12V29H11zM14,28H15V29H14zM15,28H16V29H15zM16,28H17V29H16zM18,28H19V29H18zM19,28H20V29H19zM22,28H23V29H22zM24,28H25V29H24zM25,28H26V29H25zM26,28H27V29H26zM27,28H28V29H27zM28,28H29V29H28zM29,28H30V29H29zM33,28H34V29H33zM34,28H35V29H34zM36,28H37V29H36zM10,29H11V30H10zM12,29H13V30H12zM14,29H15V30H14zM15,29H16V30H15zM16,29H17V30H16zM19,29H20V30H19zM20,29H21V30H20zM23,29H24V30H23zM25,29H26V30H25zM29,29H30V30H29zM30,29H31V30H30zM32,29H33V30H32zM34,29H35V30H34zM36,29H37V30H36zM2,30H3V31H2zM3,30H4V31H3zM4,30H5V31H4zM5,30H6V31H5zM6,30H7V31H6zM7,30H8V31H7zM8,30H9V31H8zM9,30H10V31H9zM10,30H11V31H10zM14,30H15V31H14zM16,30H17V31H16zM17,30H18V31H17zM19,30H20V31H19zM21,30H22V31H21zM23,30H24V31H23zM24,30H25V31H24zM25,30H26V31H25zM26,30H27V31H26zM29,30H30V31H29zM30,30H31V31H30zM31,30H32V31H31zM32,30H33V31H32zM33,30H34V31H33zM34,30H35V31H34zM36,30H37V31H36zM10,31H11V32H10zM14,31H15V32H14zM15,31H16V32H15zM16,31H17V32H16zM17,31H18V32H17zM19,31H20V32H19zM20,31H21V32H20zM25,31H26V32H25zM27,31H28V32H27zM28,31H29V32H28zM30,31H31V32H30zM34,31H35V32H34zM2,32H3V33H2zM3,32H4V33H3zM4,32H5V33H4zM5,32H6V33H5zM6,32H7V33H6zM7,32H8V33H7zM8,32H9V33H8zM10,32H11V33H10zM13,32H14V33H13zM14,32H15V33H14zM17,32H18V33H17zM20,32H21V33H20zM22,32H23V33H22zM23,32H24V33H23zM24,32H25V33H24zM25,32H26V33H25zM26,32H27V33H26zM28,32H29V33H28zM30,32H31V33H30zM32,32H33V33H32zM34,32H35V33H34zM2,33H3V34H2zM8,33H9V34H8zM13,33H14V34H13zM14,33H15V34H14zM15,33H16V34H15zM21,33H22V34H21zM22,33H23V34H22zM23,33H24V34H23zM26,33H27V34H26zM28,33H29V34H28zM30,33H31V34H30zM34,33H35V34H34zM35,33H36V34H35zM36,33H37V34H36zM37,33H38V34H37zM2,34H3V35H2zM4,34H5V35H4zM5,34H6V35H5zM6,34H7V35H6zM8,34H9V35H8zM10,34H11V35H10zM11,34H12V35H11zM14,34H15V35H14zM15,34H16V35H15zM16,34H17V35H16zM17,34H18V35H17zM18,34H19V35H18zM23,34H24V35H23zM25,34H26V35H25zM26,34H27V35H26zM28,34H29V35H28zM30,34H31V35H30zM31,34H32V35H31zM32,34H33V35H32zM33,34H34V35H33zM34,34H35V35H34zM35,34H36V35H35zM36,34H37V35H36zM37,34H38V35H37zM2,35H3V36H2zM4,35H5V36H4zM5,35H6V36H5zM6,35H7V36H6zM8,35H9V36H8zM12,35H13V36H12zM14,35H15V36H14zM15,35H16V36H15zM19,35H20V36H19zM20,35H21V36H20zM22,35H23V36H22zM23,35H24V36H23zM24,35H25V36H24zM25,35H26V36H25zM26,35H27V36H26zM27,35H28V36H27zM30,35H31V36H30zM32,35H33V36H32zM33,35H34V36H33zM38,35H39V36H38zM2,36H3V37H2zM4,36H5V37H4zM5,36H6V37H5zM6,36H7V37H6zM8,36H9V37H8zM12,36H13V37H12zM15,36H16V37H15zM17,36H18V37H17zM20,36H21V37H20zM22,36H23V37H22zM23,36H24V37H23zM24,36H25V37H24zM25,36H26V37H25zM27,36H28V37H27zM31,36H32V37H31zM32,36H33V37H32zM2,37H3V38H2zM8,37H9V38H8zM13,37H14V38H13zM14,37H15V38H14zM15,37H16V38H15zM16,37H17V38H16zM17,37H18V38H17zM18,37H19V38H18zM19,37H20V38H19zM21,37H22V38H21zM23,37H24V38H23zM24,37H25V38H24zM25,37H26V38H25zM28,37H29V38H28zM29,37H30V38H29zM34,37H35V38H34zM35,37H36V38H35zM36,37H37V38H36zM37,37H38V38H37zM2,38H3V39H2zM3,38H4V39H3zM4,38H5V39H4zM5,38H6V39H5zM6,38H7V39H6zM7,38H8V39H7zM8,38H9V39H8zM10,38H11V39H10zM11,38H12V39H11zM13,38H14V39H13zM15,38H16V39H15zM16,38H17V39H16zM19,38H20V39H19zM21,38H22V39H21zM23,38H24V39H23zM25,38H26V39H25zM26,38H27V39H26zM29,38H30V39H29zM32,38H33V39H32zM33,38H34V39H33zM36,38H37V39H36zM37,38H38V39H37zM38,38H39V39H38z" id="qr-path" fill="#000000" fill-opacity="1" fill-rule="nonzero" stroke="none" /></svg>